name rise44.8762peak52.3436fall86.788.mot
datacolumns 19
datarows 17
range 10.61829200000000 10.64495400000000
endheader
time	ground_force1_vx	ground_force1_vy	ground_force1_vz	ground_force1_px	ground_force1_py	ground_force1_pz	ground_force2_vx	ground_force2_vy	ground_force2_vz	ground_force2_px	ground_force2_py	ground_force2_pz	ground_torque1_x	ground_torque1_y	ground_torque1_z	ground_torque2_x	ground_torque2_y	ground_torque2_z	
10.61829200000000	-48.94672300000000	811.63082699999995	53.82647700000000	0.05980300000000	0.00000000000000	0.11628600000000	-5.45730800000000	26.51192100000000	6.77570700000000	0.29208600000000	0.00000000000000	-0.06305300000000	0.00000000000000	16.67000400000000	0.00000000000000	0.00000000000000	3.80530200000000	0.00000000000000	
10.61995800000000	-49.18306800000000	810.15672500000005	53.78338900000000	0.05923500000000	0.00000000000000	0.11623700000000	-6.38518600000000	32.38388600000000	8.10397600000000	0.29736900000000	0.00000000000000	-0.06351100000000	0.00000000000000	16.60322800000000	0.00000000000000	0.00000000000000	4.61122100000000	0.00000000000000	
10.62162300000000	-49.43640400000000	808.58514500000001	53.72497400000000	0.05866400000000	0.00000000000000	0.11618500000000	-7.25557500000000	38.42991200000000	9.41704100000000	0.30210100000000	0.00000000000000	-0.06395100000000	0.00000000000000	16.53996300000000	0.00000000000000	0.00000000000000	5.42320800000000	0.00000000000000	
10.62329600000000	-49.70725200000000	806.91459899999995	53.65064900000000	0.05809100000000	0.00000000000000	0.11613100000000	-8.03696900000000	44.52710400000000	10.67852400000000	0.30636200000000	0.00000000000000	-0.06437500000000	0.00000000000000	16.48035600000000	0.00000000000000	0.00000000000000	6.21930300000000	0.00000000000000	
10.62495700000000	-49.99606700000000	805.14359200000001	53.55984800000000	0.05751500000000	0.00000000000000	0.11607300000000	-8.70322800000000	50.56650700000000	11.85697700000000	0.31021300000000	0.00000000000000	-0.06478600000000	0.00000000000000	16.42453700000000	0.00000000000000	0.00000000000000	6.97998300000000	0.00000000000000	
10.62663100000000	-50.30323600000000	803.27061500000002	53.45201800000000	0.05693600000000	0.00000000000000	0.11601300000000	-9.23497700000000	56.45998600000000	12.92765700000000	0.31371100000000	0.00000000000000	-0.06518500000000	0.00000000000000	16.37262300000000	0.00000000000000	0.00000000000000	7.68933400000000	0.00000000000000	
10.62828700000000	-50.62907100000000	801.29415300000005	53.32662400000000	0.05635500000000	0.00000000000000	0.11595000000000	-9.62024600000000	62.14442300000000	13.87350500000000	0.31689800000000	0.00000000000000	-0.06557500000000	0.00000000000000	16.32471500000000	0.00000000000000	0.00000000000000	8.33577500000000	0.00000000000000	
10.62995700000000	-50.97381100000000	799.21267899999998	53.18315300000000	0.05577000000000	0.00000000000000	0.11588400000000	-9.85442400000000	67.58321700000000	14.68534700000000	0.31981300000000	0.00000000000000	-0.06595500000000	0.00000000000000	16.28089700000000	0.00000000000000	0.00000000000000	8.91230400000000	0.00000000000000	
10.63162900000000	-51.33761600000000	797.02465700000005	53.02111200000000	0.05518300000000	0.00000000000000	0.11581500000000	-9.93960300000000	72.76535000000000	15.36142100000000	0.32248800000000	0.00000000000000	-0.06632900000000	0.00000000000000	16.24123900000000	0.00000000000000	0.00000000000000	9.41633200000000	0.00000000000000	
10.63328800000000	-51.72056900000000	794.72854299999995	52.84003100000000	0.05459200000000	0.00000000000000	0.11574200000000	-9.88349600000000	77.70251300000000	15.90636800000000	0.32495100000000	0.00000000000000	-0.06669600000000	0.00000000000000	16.20579200000000	0.00000000000000	0.00000000000000	9.84918400000000	0.00000000000000	
10.63495500000000	-52.12266600000000	792.32278699999995	52.63946700000000	0.05399900000000	0.00000000000000	0.11566600000000	-9.69807000000000	82.42486100000001	16.32988400000000	0.32722400000000	0.00000000000000	-0.06705700000000	0.00000000000000	16.17458900000000	0.00000000000000	0.00000000000000	10.21535400000000	0.00000000000000	
10.63662700000000	-52.54382500000000	789.80582900000002	52.41900400000000	0.05340200000000	0.00000000000000	0.11558700000000	-9.39806600000000	86.97598200000000	16.64518100000000	0.32932800000000	0.00000000000000	-0.06741400000000	0.00000000000000	16.14764600000000	0.00000000000000	0.00000000000000	10.52163200000000	0.00000000000000	
10.63828800000000	-52.98387400000000	787.17610800000000	52.17825600000000	0.05280300000000	0.00000000000000	0.11550500000000	-8.99954400000000	91.40763900000000	16.86743700000000	0.33128100000000	0.00000000000000	-0.06776600000000	0.00000000000000	16.12495900000000	0.00000000000000	0.00000000000000	10.77620100000000	0.00000000000000	
10.63995400000000	-53.44255600000000	784.43206099999998	51.91686900000000	0.05220100000000	0.00000000000000	0.11541800000000	-8.51857900000000	95.77475099999999	17.01235000000000	0.33309600000000	0.00000000000000	-0.06811400000000	0.00000000000000	16.10650600000000	0.00000000000000	0.00000000000000	10.98776900000000	0.00000000000000	
10.64162100000000	-53.91952700000000	781.57212000000004	51.63452000000000	0.05159500000000	0.00000000000000	0.11532900000000	-7.97016700000000	100.13096899999999	17.09489700000000	0.33478700000000	0.00000000000000	-0.06845900000000	0.00000000000000	16.09224500000000	0.00000000000000	0.00000000000000	11.16481300000000	0.00000000000000	
10.64329000000000	-54.41435300000000	778.59472500000004	51.33092200000000	0.05098700000000	0.00000000000000	0.11523500000000	-7.36740200000000	104.52509999999999	17.12836800000000	0.33636400000000	0.00000000000000	-0.06880200000000	0.00000000000000	16.08211400000000	0.00000000000000	0.00000000000000	11.31497100000000	0.00000000000000	
10.64495400000000	-54.92650900000000	775.49831600000005	51.00582500000000	0.05037600000000	0.00000000000000	0.11513800000000	-6.72094600000000	108.99849700000000	17.12369300000000	0.33783700000000	0.00000000000000	-0.06914200000000	0.00000000000000	16.07603200000000	0.00000000000000	0.00000000000000	11.44460900000000	0.00000000000000	
